# xmcd
# Track frame offsets: 
#        150
#        16929
#        33158
#        50611
#        63284
#        75873
#        92928
#        108957
#        127122
#        140250
# Disc length: 2095 seconds
# Revision: 0
# Processed by: cddbd v1.4b41PL1 Copyright (c) Steve Scherf et al.
# Submitted via: ExactAudioCopy v0.90a6
#
DISCID=77082d0a
DTITLE=Kerry Kingsland - What I Know Now
DYEAR=1900
DGENRE=
TTITLE0=Same Old Stuff
TTITLE1=Leave My Heart Behind
TTITLE2=For You
TTITLE3=It Must Be Love
TTITLE4=Never Should Have Let Her Go
TTITLE5=What I Know Now
TTITLE6=No Win Situation
TTITLE7=The Wish
TTITLE8=Now I Can Live (Without You)
TTITLE9=She Won't Be Here Tonight
EXTD=
EXTT0=
EXTT1=
EXTT2=
EXTT3=
EXTT4=
EXTT5=
EXTT6=
EXTT7=
EXTT8=
EXTT9=
PLAYORDER=
